<svg width="127" height="17" viewBox="0 0 127 17" fill="none"
    xmlns="http://www.w3.org/2000/svg">
    <path d="M2.97828 16H1.17828V1.71999H9.15828V3.29999H2.97828V8.35999H8.77828V9.93999H2.97828V16Z" fill="#E03838"/>
    <path d="M12.2094 1.25999C12.476 1.25999 12.7094 1.35332 12.9094 1.53999C13.1227 1.71332 13.2294 1.99332 13.2294 2.37999C13.2294 2.75332 13.1227 3.03332 12.9094 3.21999C12.7094 3.40666 12.476 3.49999 12.2094 3.49999C11.916 3.49999 11.6694 3.40666 11.4694 3.21999C11.2694 3.03332 11.1694 2.75332 11.1694 2.37999C11.1694 1.99332 11.2694 1.71332 11.4694 1.53999C11.6694 1.35332 11.916 1.25999 12.2094 1.25999ZM13.0694 5.27999V16H11.3094V5.27999H13.0694Z" fill="#E03838"/>
    <path d="M21.6256 5.07999C22.9056 5.07999 23.8723 5.39332 24.5256 6.01999C25.179 6.63332 25.5056 7.63332 25.5056 9.01999V16H23.7656V9.13999C23.7656 7.41999 22.9656 6.55999 21.3656 6.55999C20.179 6.55999 19.359 6.89332 18.9056 7.55999C18.4523 8.22666 18.2256 9.18665 18.2256 10.44V16H16.4656V5.27999H17.8856L18.1456 6.73999H18.2456C18.5923 6.17999 19.0723 5.76665 19.6856 5.49999C20.299 5.21999 20.9456 5.07999 21.6256 5.07999Z" fill="#E03838"/>
    <path d="M32.6289 16.2C31.2956 16.2 30.2289 15.74 29.4289 14.82C28.6289 13.8867 28.2289 12.5 28.2289 10.66C28.2289 8.81999 28.6289 7.43332 29.4289 6.49999C30.2422 5.55332 31.3156 5.07999 32.6489 5.07999C33.4756 5.07999 34.1489 5.23332 34.6689 5.53999C35.2022 5.84666 35.6356 6.21999 35.9689 6.65999H36.0889C36.0756 6.48665 36.0489 6.23332 36.0089 5.89999C35.9822 5.55332 35.9689 5.27999 35.9689 5.07999V0.799988H37.7289V16H36.3089L36.0489 14.56H35.9689C35.6489 15.0133 35.2222 15.4 34.6889 15.72C34.1556 16.04 33.4689 16.2 32.6289 16.2ZM32.9089 14.74C34.0422 14.74 34.8356 14.4333 35.2889 13.82C35.7556 13.1933 35.9889 12.2533 35.9889 11V10.68C35.9889 9.34665 35.7689 8.32665 35.3289 7.61999C34.8889 6.89999 34.0756 6.53999 32.8889 6.53999C31.9422 6.53999 31.2289 6.91999 30.7489 7.67999C30.2822 8.42666 30.0489 9.43332 30.0489 10.7C30.0489 11.98 30.2822 12.9733 30.7489 13.68C31.2289 14.3867 31.9489 14.74 32.9089 14.74Z" fill="#E03838"/>
    <path d="M41.3736 16V1.71999H43.1736V14.4H49.4136V16H41.3736Z" fill="#E03838"/>
    <path d="M60.9419 10.62C60.9419 12.3933 60.4885 13.7667 59.5819 14.74C58.6885 15.7133 57.4752 16.2 55.9419 16.2C54.9952 16.2 54.1485 15.9867 53.4019 15.56C52.6685 15.12 52.0885 14.4867 51.6619 13.66C51.2352 12.82 51.0219 11.8067 51.0219 10.62C51.0219 8.84665 51.4685 7.47999 52.3619 6.51999C53.2552 5.55999 54.4685 5.07999 56.0019 5.07999C56.9752 5.07999 57.8285 5.29999 58.5619 5.73999C59.3085 6.16665 59.8885 6.79332 60.3019 7.61999C60.7285 8.43332 60.9419 9.43332 60.9419 10.62ZM52.8419 10.62C52.8419 11.8867 53.0885 12.8933 53.5819 13.64C54.0885 14.3733 54.8885 14.74 55.9819 14.74C57.0619 14.74 57.8552 14.3733 58.3619 13.64C58.8685 12.8933 59.1219 11.8867 59.1219 10.62C59.1219 9.35332 58.8685 8.35999 58.3619 7.63999C57.8552 6.91999 57.0552 6.55999 55.9619 6.55999C54.8685 6.55999 54.0752 6.91999 53.5819 7.63999C53.0885 8.35999 52.8419 9.35332 52.8419 10.62Z" fill="#E03838"/>
    <path d="M65.7006 16L61.6406 5.27999H63.5206L65.8006 11.6C65.9073 11.8933 66.0206 12.22 66.1406 12.58C66.2606 12.94 66.3673 13.2867 66.4606 13.62C66.554 13.94 66.6206 14.2133 66.6606 14.44H66.7406C66.794 14.2133 66.8673 13.9333 66.9606 13.6C67.0673 13.2667 67.1806 12.92 67.3006 12.56C67.434 12.2 67.5473 11.88 67.6406 11.6L69.9206 5.27999H71.8006L67.7206 16H65.7006Z" fill="#E03838"/>
    <path d="M77.6369 5.07999C78.5569 5.07999 79.3435 5.27999 79.9969 5.67999C80.6635 6.07999 81.1702 6.64665 81.5169 7.37999C81.8769 8.09999 82.0569 8.94666 82.0569 9.91999V10.98H74.7169C74.7435 12.1933 75.0502 13.12 75.6369 13.76C76.2369 14.3867 77.0702 14.7 78.1369 14.7C78.8169 14.7 79.4169 14.64 79.9369 14.52C80.4702 14.3867 81.0169 14.2 81.5769 13.96V15.5C81.0302 15.74 80.4902 15.9133 79.9569 16.02C79.4235 16.14 78.7902 16.2 78.0569 16.2C77.0435 16.2 76.1435 15.9933 75.3569 15.58C74.5835 15.1667 73.9769 14.5533 73.5369 13.74C73.1102 12.9133 72.8969 11.9067 72.8969 10.72C72.8969 9.54665 73.0902 8.53999 73.4769 7.69999C73.8769 6.85999 74.4302 6.21332 75.1369 5.75999C75.8569 5.30665 76.6902 5.07999 77.6369 5.07999ZM77.6169 6.51999C76.7769 6.51999 76.1102 6.79332 75.6169 7.33999C75.1369 7.87332 74.8502 8.61999 74.7569 9.57999H80.2169C80.2035 8.67332 79.9902 7.93999 79.5769 7.37999C79.1635 6.80665 78.5102 6.51999 77.6169 6.51999Z" fill="#E03838"/>
    <path d="M96.3459 16H94.2459L86.6059 4.13999H86.5259C86.5526 4.60665 86.5859 5.18665 86.6259 5.87999C86.6659 6.57332 86.6859 7.28666 86.6859 8.01999V16H85.0259V1.71999H87.1059L94.7259 13.54H94.8059C94.7926 13.3267 94.7726 13.0067 94.7459 12.58C94.7326 12.1533 94.7126 11.6867 94.6859 11.18C94.6726 10.6733 94.6659 10.2067 94.6659 9.77999V1.71999H96.3459V16Z" fill="#E03838"/>
    <path d="M109.301 10.62C109.301 12.3933 108.848 13.7667 107.941 14.74C107.048 15.7133 105.835 16.2 104.301 16.2C103.355 16.2 102.508 15.9867 101.761 15.56C101.028 15.12 100.448 14.4867 100.021 13.66C99.5946 12.82 99.3812 11.8067 99.3812 10.62C99.3812 8.84665 99.8279 7.47999 100.721 6.51999C101.615 5.55999 102.828 5.07999 104.361 5.07999C105.335 5.07999 106.188 5.29999 106.921 5.73999C107.668 6.16665 108.248 6.79332 108.661 7.61999C109.088 8.43332 109.301 9.43332 109.301 10.62ZM101.201 10.62C101.201 11.8867 101.448 12.8933 101.941 13.64C102.448 14.3733 103.248 14.74 104.341 14.74C105.421 14.74 106.215 14.3733 106.721 13.64C107.228 12.8933 107.481 11.8867 107.481 10.62C107.481 9.35332 107.228 8.35999 106.721 7.63999C106.215 6.91999 105.415 6.55999 104.321 6.55999C103.228 6.55999 102.435 6.91999 101.941 7.63999C101.448 8.35999 101.201 9.35332 101.201 10.62Z" fill="#E03838"/>
    <path d="M118.62 9.93999C118.447 9.39332 118.293 8.85999 118.16 8.33999C118.04 7.80666 117.947 7.39332 117.88 7.09999H117.8C117.747 7.39332 117.66 7.80666 117.54 8.33999C117.42 8.85999 117.267 9.39999 117.08 9.95999L115.16 15.98H113.16L110.22 5.25999H112.04L113.52 10.98C113.667 11.5533 113.807 12.1333 113.94 12.72C114.073 13.3067 114.167 13.7933 114.22 14.18H114.3C114.353 13.9533 114.413 13.6733 114.48 13.34C114.56 13.0067 114.647 12.66 114.74 12.3C114.833 11.9267 114.927 11.5933 115.02 11.3L116.92 5.25999H118.84L120.68 11.3C120.827 11.7533 120.967 12.2467 121.1 12.78C121.247 13.3133 121.347 13.7733 121.4 14.16H121.48C121.52 13.8267 121.607 13.3667 121.74 12.78C121.887 12.1933 122.04 11.5933 122.2 10.98L123.7 5.25999H125.5L122.52 15.98H120.46L118.62 9.93999Z" fill="#E03838"/>
    <path d="M2.97828 16H1.17828V1.71999H9.15828V3.29999H2.97828V8.35999H8.77828V9.93999H2.97828V16Z" stroke="#E03838" mask="url(#path-1-outside-1)"/>
    <path d="M12.2094 1.25999C12.476 1.25999 12.7094 1.35332 12.9094 1.53999C13.1227 1.71332 13.2294 1.99332 13.2294 2.37999C13.2294 2.75332 13.1227 3.03332 12.9094 3.21999C12.7094 3.40666 12.476 3.49999 12.2094 3.49999C11.916 3.49999 11.6694 3.40666 11.4694 3.21999C11.2694 3.03332 11.1694 2.75332 11.1694 2.37999C11.1694 1.99332 11.2694 1.71332 11.4694 1.53999C11.6694 1.35332 11.916 1.25999 12.2094 1.25999ZM13.0694 5.27999V16H11.3094V5.27999H13.0694Z" stroke="#E03838" mask="url(#path-1-outside-1)"/>
    <path d="M21.6256 5.07999C22.9056 5.07999 23.8723 5.39332 24.5256 6.01999C25.179 6.63332 25.5056 7.63332 25.5056 9.01999V16H23.7656V9.13999C23.7656 7.41999 22.9656 6.55999 21.3656 6.55999C20.179 6.55999 19.359 6.89332 18.9056 7.55999C18.4523 8.22666 18.2256 9.18665 18.2256 10.44V16H16.4656V5.27999H17.8856L18.1456 6.73999H18.2456C18.5923 6.17999 19.0723 5.76665 19.6856 5.49999C20.299 5.21999 20.9456 5.07999 21.6256 5.07999Z" stroke="#E03838" mask="url(#path-1-outside-1)"/>
    <path d="M32.6289 16.2C31.2956 16.2 30.2289 15.74 29.4289 14.82C28.6289 13.8867 28.2289 12.5 28.2289 10.66C28.2289 8.81999 28.6289 7.43332 29.4289 6.49999C30.2422 5.55332 31.3156 5.07999 32.6489 5.07999C33.4756 5.07999 34.1489 5.23332 34.6689 5.53999C35.2022 5.84666 35.6356 6.21999 35.9689 6.65999H36.0889C36.0756 6.48665 36.0489 6.23332 36.0089 5.89999C35.9822 5.55332 35.9689 5.27999 35.9689 5.07999V0.799988H37.7289V16H36.3089L36.0489 14.56H35.9689C35.6489 15.0133 35.2222 15.4 34.6889 15.72C34.1556 16.04 33.4689 16.2 32.6289 16.2ZM32.9089 14.74C34.0422 14.74 34.8356 14.4333 35.2889 13.82C35.7556 13.1933 35.9889 12.2533 35.9889 11V10.68C35.9889 9.34665 35.7689 8.32665 35.3289 7.61999C34.8889 6.89999 34.0756 6.53999 32.8889 6.53999C31.9422 6.53999 31.2289 6.91999 30.7489 7.67999C30.2822 8.42666 30.0489 9.43332 30.0489 10.7C30.0489 11.98 30.2822 12.9733 30.7489 13.68C31.2289 14.3867 31.9489 14.74 32.9089 14.74Z" stroke="#E03838" mask="url(#path-1-outside-1)"/>
    <path d="M41.3736 16V1.71999H43.1736V14.4H49.4136V16H41.3736Z" stroke="#E03838" mask="url(#path-1-outside-1)"/>
    <path d="M60.9419 10.62C60.9419 12.3933 60.4885 13.7667 59.5819 14.74C58.6885 15.7133 57.4752 16.2 55.9419 16.2C54.9952 16.2 54.1485 15.9867 53.4019 15.56C52.6685 15.12 52.0885 14.4867 51.6619 13.66C51.2352 12.82 51.0219 11.8067 51.0219 10.62C51.0219 8.84665 51.4685 7.47999 52.3619 6.51999C53.2552 5.55999 54.4685 5.07999 56.0019 5.07999C56.9752 5.07999 57.8285 5.29999 58.5619 5.73999C59.3085 6.16665 59.8885 6.79332 60.3019 7.61999C60.7285 8.43332 60.9419 9.43332 60.9419 10.62ZM52.8419 10.62C52.8419 11.8867 53.0885 12.8933 53.5819 13.64C54.0885 14.3733 54.8885 14.74 55.9819 14.74C57.0619 14.74 57.8552 14.3733 58.3619 13.64C58.8685 12.8933 59.1219 11.8867 59.1219 10.62C59.1219 9.35332 58.8685 8.35999 58.3619 7.63999C57.8552 6.91999 57.0552 6.55999 55.9619 6.55999C54.8685 6.55999 54.0752 6.91999 53.5819 7.63999C53.0885 8.35999 52.8419 9.35332 52.8419 10.62Z" stroke="#E03838" mask="url(#path-1-outside-1)"/>
    <path d="M65.7006 16L61.6406 5.27999H63.5206L65.8006 11.6C65.9073 11.8933 66.0206 12.22 66.1406 12.58C66.2606 12.94 66.3673 13.2867 66.4606 13.62C66.554 13.94 66.6206 14.2133 66.6606 14.44H66.7406C66.794 14.2133 66.8673 13.9333 66.9606 13.6C67.0673 13.2667 67.1806 12.92 67.3006 12.56C67.434 12.2 67.5473 11.88 67.6406 11.6L69.9206 5.27999H71.8006L67.7206 16H65.7006Z" stroke="#E03838" mask="url(#path-1-outside-1)"/>
    <path d="M77.6369 5.07999C78.5569 5.07999 79.3435 5.27999 79.9969 5.67999C80.6635 6.07999 81.1702 6.64665 81.5169 7.37999C81.8769 8.09999 82.0569 8.94666 82.0569 9.91999V10.98H74.7169C74.7435 12.1933 75.0502 13.12 75.6369 13.76C76.2369 14.3867 77.0702 14.7 78.1369 14.7C78.8169 14.7 79.4169 14.64 79.9369 14.52C80.4702 14.3867 81.0169 14.2 81.5769 13.96V15.5C81.0302 15.74 80.4902 15.9133 79.9569 16.02C79.4235 16.14 78.7902 16.2 78.0569 16.2C77.0435 16.2 76.1435 15.9933 75.3569 15.58C74.5835 15.1667 73.9769 14.5533 73.5369 13.74C73.1102 12.9133 72.8969 11.9067 72.8969 10.72C72.8969 9.54665 73.0902 8.53999 73.4769 7.69999C73.8769 6.85999 74.4302 6.21332 75.1369 5.75999C75.8569 5.30665 76.6902 5.07999 77.6369 5.07999ZM77.6169 6.51999C76.7769 6.51999 76.1102 6.79332 75.6169 7.33999C75.1369 7.87332 74.8502 8.61999 74.7569 9.57999H80.2169C80.2035 8.67332 79.9902 7.93999 79.5769 7.37999C79.1635 6.80665 78.5102 6.51999 77.6169 6.51999Z" stroke="#E03838" mask="url(#path-1-outside-1)"/>
    <path d="M96.3459 16H94.2459L86.6059 4.13999H86.5259C86.5526 4.60665 86.5859 5.18665 86.6259 5.87999C86.6659 6.57332 86.6859 7.28666 86.6859 8.01999V16H85.0259V1.71999H87.1059L94.7259 13.54H94.8059C94.7926 13.3267 94.7726 13.0067 94.7459 12.58C94.7326 12.1533 94.7126 11.6867 94.6859 11.18C94.6726 10.6733 94.6659 10.2067 94.6659 9.77999V1.71999H96.3459V16Z" stroke="#E03838" mask="url(#path-1-outside-1)"/>
    <path d="M109.301 10.62C109.301 12.3933 108.848 13.7667 107.941 14.74C107.048 15.7133 105.835 16.2 104.301 16.2C103.355 16.2 102.508 15.9867 101.761 15.56C101.028 15.12 100.448 14.4867 100.021 13.66C99.5946 12.82 99.3812 11.8067 99.3812 10.62C99.3812 8.84665 99.8279 7.47999 100.721 6.51999C101.615 5.55999 102.828 5.07999 104.361 5.07999C105.335 5.07999 106.188 5.29999 106.921 5.73999C107.668 6.16665 108.248 6.79332 108.661 7.61999C109.088 8.43332 109.301 9.43332 109.301 10.62ZM101.201 10.62C101.201 11.8867 101.448 12.8933 101.941 13.64C102.448 14.3733 103.248 14.74 104.341 14.74C105.421 14.74 106.215 14.3733 106.721 13.64C107.228 12.8933 107.481 11.8867 107.481 10.62C107.481 9.35332 107.228 8.35999 106.721 7.63999C106.215 6.91999 105.415 6.55999 104.321 6.55999C103.228 6.55999 102.435 6.91999 101.941 7.63999C101.448 8.35999 101.201 9.35332 101.201 10.62Z" stroke="#E03838" mask="url(#path-1-outside-1)"/>
    <path d="M118.62 9.93999C118.447 9.39332 118.293 8.85999 118.16 8.33999C118.04 7.80666 117.947 7.39332 117.88 7.09999H117.8C117.747 7.39332 117.66 7.80666 117.54 8.33999C117.42 8.85999 117.267 9.39999 117.08 9.95999L115.16 15.98H113.16L110.22 5.25999H112.04L113.52 10.98C113.667 11.5533 113.807 12.1333 113.94 12.72C114.073 13.3067 114.167 13.7933 114.22 14.18H114.3C114.353 13.9533 114.413 13.6733 114.48 13.34C114.56 13.0067 114.647 12.66 114.74 12.3C114.833 11.9267 114.927 11.5933 115.02 11.3L116.92 5.25999H118.84L120.68 11.3C120.827 11.7533 120.967 12.2467 121.1 12.78C121.247 13.3133 121.347 13.7733 121.4 14.16H121.48C121.52 13.8267 121.607 13.3667 121.74 12.78C121.887 12.1933 122.04 11.5933 122.2 10.98L123.7 5.25999H125.5L122.52 15.98H120.46L118.62 9.93999Z" stroke="#E03838" mask="url(#path-1-outside-1)"/>
</svg>
